<?xml version="1.0" encoding="UTF-8" standalone="no"?>
<svg
   viewBox="0 0 50 50"
   width="50px"
   height="50px"
   version="1.1"
   id="svg1"
   sodipodi:docname="twitter-icon.svg"
   inkscape:version="1.4.1-rc (06eac75fbf, 2025-03-29)"
   xmlns:inkscape="http://www.inkscape.org/namespaces/inkscape"
   xmlns:sodipodi="http://sodipodi.sourceforge.net/DTD/sodipodi-0.dtd"
   xmlns="http://www.w3.org/2000/svg"
   xmlns:svg="http://www.w3.org/2000/svg">
  <defs
     id="defs1" />
  <sodipodi:namedview
     id="namedview1"
     pagecolor="#505050"
     bordercolor="#ffffff"
     borderopacity="1"
     inkscape:showpageshadow="0"
     inkscape:pageopacity="0"
     inkscape:pagecheckerboard="1"
     inkscape:deskcolor="#505050"
     inkscape:zoom="12.1"
     inkscape:cx="25.041322"
     inkscape:cy="25"
     inkscape:window-width="1440"
     inkscape:window-height="839"
     inkscape:window-x="0"
     inkscape:window-y="0"
     inkscape:window-maximized="1"
     inkscape:current-layer="svg1" />
  <path
     d="M 11 4 C 7.1456661 4 4 7.1456661 4 11 L 4 39 C 4 42.854334 7.1456661 46 11 46 L 39 46 C 42.854334 46 46 42.854334 46 39 L 46 11 C 46 7.1456661 42.854334 4 39 4 L 11 4 z M 11 6 L 39 6 C 41.773666 6 44 8.2263339 44 11 L 44 39 C 44 41.773666 41.773666 44 39 44 L 11 44 C 8.2263339 44 6 41.773666 6 39 L 6 11 C 6 8.2263339 8.2263339 6 11 6 z M 13.085938 13 L 22.308594 26.103516 L 13 37 L 15.5 37 L 23.4375 27.707031 L 29.976562 37 L 37.914062 37 L 27.789062 22.613281 L 36 13 L 33.5 13 L 26.660156 21.009766 L 21.023438 13 L 13.085938 13 z M 16.914062 15 L 19.978516 15 L 34.085938 35 L 31.021484 35 L 16.914062 15 z"
     id="path1"
     style="fill:#ffffff;fill-opacity:1" />
</svg>
